<svg xmlns="http://www.w3.org/2000/svg" width="16.606" height="16.953" viewBox="0 0 16.606 16.953"><defs><style>.a{opacity:0.6;}</style></defs><g class="a" transform="translate(-84.311 -75.621)"><g transform="translate(84.311 75.621)"><path d="M284.448,77.818l-1.605.431-1.17.314-1.716.46-2.232.6-1.116.3-.2.052.613.468v-.367c0-.144.008-.287.021-.429,0-.021,0-.043.008-.066.006-.054.006-.043,0,.031a.553.553,0,0,1,.016-.1q.02-.119.047-.239a4.251,4.251,0,0,1,.122-.435c.023-.07.05-.142.078-.21.047-.116-.035.072.008-.017l.047-.1c.064-.134.134-.266.212-.394.039-.064.08-.126.122-.188.021-.031.043-.062.064-.091s.109-.142.019-.029l-.344.142.324-.039.078-.01a.536.536,0,0,0,.344-.142c.023-.021.043-.049.064-.072.043-.047.087-.093.132-.138.083-.082.171-.161.26-.235.016-.014.033-.027.05-.041.087-.072-.087.064,0,0,.052-.037.1-.076.157-.111.1-.066.2-.128.307-.184l.146-.076c.031-.016.062-.029.093-.043l.066-.029-.033.014a4.262,4.262,0,0,1,.771-.221c.029-.006.058-.01.087-.014s.1-.037-.006,0a.813.813,0,0,1,.194-.017,3.543,3.543,0,0,1,.406-.006c.058,0,.118.006.177.01.035,0,.07.008.1.01.122.012-.109-.017.012,0a3.71,3.71,0,0,1,.382.078c.126.033.252.072.375.116.033.012.068.025.1.039.083.031,0,0-.016-.008a1.557,1.557,0,0,1,.223.1,3.635,3.635,0,0,1,.357.208.59.59,0,0,0,.4.138l.361-.043-.344-.142a4.247,4.247,0,0,1,.689.683c.078.1-.045-.064.012.016.025.035.05.068.074.1.045.064.089.132.13.2a4.4,4.4,0,0,1,.233.433.488.488,0,0,0,.664.175.5.5,0,0,0,.175-.664,4.667,4.667,0,0,0-.953-1.334c-.19-.186-.448-.464-.73-.431l-.355.043.245.066a4.357,4.357,0,0,0-4.732-.128,4.284,4.284,0,0,0-.972.821l.344-.142a3.29,3.29,0,0,0-.39.047.539.539,0,0,0-.411.217c-.062.08-.122.159-.179.243a4.592,4.592,0,0,0-.248.41,4.814,4.814,0,0,0-.555,2.056c-.008.179,0,.357,0,.534a.49.49,0,0,0,.613.468c.363-.1.728-.194,1.091-.293l2.18-.584,1.875-.5,1.005-.27,1.687-.452.2-.054a.485.485,0,1,0-.256-.936Z" transform="translate(-272.328 -75.621)"/><path d="M302.579,226.078c0,.542.029,1.095-.023,1.634,0,.043-.01.085-.014.126-.006.056,0-.037.006-.039s-.006.041-.008.054q-.017.116-.041.233a4.583,4.583,0,0,1-.116.454c-.021.068-.043.138-.068.2-.014.039-.029.078-.043.116-.01.023-.051.093-.045.115,0,0,.037-.085.014-.035-.008.016-.014.033-.021.049-.014.033-.029.064-.045.1q-.052.111-.111.221c-.07.13-.146.256-.225.38-.037.056-.074.111-.113.165-.019.027-.039.054-.058.08-.008.01-.043.056,0,0s0,.006-.014.016a4.953,4.953,0,0,1-.6.629l-.151.128-.039.031c-.033.025-.068.029.029-.021.019-.01.188-.074.041-.012a.4.4,0,0,0-.1.054c-.122.091-.25.177-.382.256-.062.039-.126.074-.19.109-.031.017-.062.033-.1.049a.588.588,0,0,0-.113.05s.085-.033.035-.016c-.021.008-.043.017-.066.025s-.066.023-.1.033c-.072.023-.144.043-.217.06-.033.008-.068.016-.1.021s-.149.021-.072.014l-.054.006-.12.01a2.862,2.862,0,0,1-.446-.014c-.1-.01.085.016-.008,0-.033-.006-.068-.012-.1-.019-.08-.016-.157-.037-.235-.058s-.132-.045-.2-.068c-.087-.031.072.035-.014-.006l-.111-.052a3.994,3.994,0,0,1-.4-.237c-.064-.043-.128-.087-.192-.132a.362.362,0,0,0-.08-.058s.072.058.029.023l-.056-.045a4.844,4.844,0,0,1-.6-.578c-.045-.05-.089-.1-.13-.155-.012-.014-.078-.1-.035-.045s0,.006,0,0l-.041-.054c-.085-.118-.167-.241-.241-.367s-.153-.272-.221-.413c-.016-.033-.031-.066-.045-.1-.008-.016-.014-.033-.021-.048-.023-.052.014.033.014.033a1.73,1.73,0,0,1-.087-.229,4.824,4.824,0,0,1-.221-.872c0-.017-.006-.035-.008-.052-.014-.091.006.012,0,.023a.514.514,0,0,0-.012-.107q-.012-.116-.017-.233c-.006-.1-.008-.192-.008-.287v-.883c-.118.155-.237.313-.357.468.571-.153,1.139-.307,1.71-.458l2.706-.726.627-.169H300.3l2.31.957.332.138a.487.487,0,0,0,.375-.049.485.485,0,0,0,.175-.664.59.59,0,0,0-.289-.223l-1.535-.637-.9-.375c-.064-.027-.128-.06-.194-.082a.539.539,0,0,0-.309.008l-1.423.382-2.223.6c-.445.118-.893.227-1.333.357l-.019.006a.494.494,0,0,0-.357.468v.78a5.789,5.789,0,0,0,.2,1.559,5.45,5.45,0,0,0,2.31,3.117,3.337,3.337,0,0,0,1.96.559,3.546,3.546,0,0,0,1.924-.72.306.306,0,0,0,.041-.029c.029-.037-.058.017-.076.017a.322.322,0,0,0,.148-.074c.085-.066.171-.132.252-.2.116-.1.227-.2.334-.307a5.636,5.636,0,0,0,.629-.763,5.283,5.283,0,0,0,.8-1.805,10.2,10.2,0,0,0,.144-2.32v-.07a.489.489,0,0,0-.978-.006Z" transform="translate(-290.812 -221.612)"/><path d="M99.944,539.756v1.908l.485-.485H85.435c-.2,0-.408,0-.611,0H84.8l.485.485v-1.9c0-.056,0-.113,0-.169s.006-.109.01-.161c0-.027.006-.054.008-.08s.027-.167,0,0a4.722,4.722,0,0,1,.134-.59c.031-.1.068-.2.1-.293s-.049.111-.008.021c.008-.016.014-.031.021-.047.025-.054.05-.109.078-.163a3.722,3.722,0,0,1,.324-.522c.019-.027.082-.1-.014.017a.494.494,0,0,0,.039-.05c.029-.037.06-.072.089-.107.07-.08.144-.157.219-.231s.142-.134.217-.2c.033-.027.179-.128.041-.035.043-.029.082-.06.124-.089a4.031,4.031,0,0,1,.53-.311c.047-.021.1-.041.142-.064-.148.072-.008,0,.027-.01.1-.041.212-.076.32-.107.093-.027.186-.048.281-.068.052-.01.1-.019.157-.027.035-.006.132-.012-.023,0,.027,0,.052-.006.08-.01a4.278,4.278,0,0,1,.474-.021h.408a2.166,2.166,0,0,0,.9-.208,2.023,2.023,0,0,0,1.13-1.522c-.27.072-.542.144-.811.214a3.122,3.122,0,0,0,.4.311c.122.087.248.169.377.245a3.265,3.265,0,0,0,.928.375,3.208,3.208,0,0,0,1.959-.167,3.7,3.7,0,0,0,.5-.256c.142-.085.27-.186.408-.278l-.712-.289a2.077,2.077,0,0,0,1.485,1.51,9.285,9.285,0,0,0,1.376.083c.035,0,.07.01.107.012,0,0-.128-.019-.05-.006a.456.456,0,0,0,.052.008c.074.012.148.027.221.043a3.444,3.444,0,0,1,.413.12l.109.041c.016.006.136.054.05.019s.033.016.049.023c.035.016.07.033.1.051a4.051,4.051,0,0,1,.379.215q.084.055.169.116c.031.023.12.1,0,0,.029.025.06.048.089.072a3.591,3.591,0,0,1,.309.285c.047.048.093.1.138.149l.066.078c.027.033.107.153.019.021.078.116.163.229.237.349.083.14.153.287.223.435.025.054-.041-.1-.019-.045l.023.06c.016.041.031.082.045.122.025.074.05.148.07.223.047.161.072.324.1.489,0,0-.016-.13-.008-.051,0,.021.006.045.008.066,0,.041.008.08.01.12.006.089.01.181.01.27a.485.485,0,0,0,.971,0,4.29,4.29,0,0,0-1.59-3.321,4.335,4.335,0,0,0-1.712-.846,6.452,6.452,0,0,0-1.446-.115,1.692,1.692,0,0,1-.171-.008c-.021,0-.085-.006,0,0s0,0-.017-.006c-.045-.01-.089-.02-.132-.033s-.085-.027-.128-.043-.039-.037.041.017a.572.572,0,0,0-.06-.029,1.973,1.973,0,0,1-.215-.13c-.033-.023-.035-.048.035.027a.532.532,0,0,0-.05-.043q-.044-.038-.087-.082c-.031-.031-.06-.064-.089-.1s-.029-.06.027.035a.769.769,0,0,0-.047-.064,2.2,2.2,0,0,1-.118-.208c-.037-.068.014.035.016.043-.008-.025-.019-.051-.029-.076-.019-.056-.035-.113-.049-.169a.488.488,0,0,0-.712-.289c-.148.1-.287.206-.439.3-.072.043-.146.085-.221.124-.043.021-.085.041-.128.06s-.043.019.019-.008c-.021.008-.043.017-.066.025a3.372,3.372,0,0,1-.5.134c-.054.008-.045.008.027,0l-.068.008c-.035,0-.068.006-.1.008a2.588,2.588,0,0,1-.276,0c-.047,0-.091,0-.138-.008a.683.683,0,0,1-.068-.008c-.054-.006-.045-.006.027,0-.025.008-.078-.014-.1-.017-.045-.008-.091-.02-.136-.029a2.624,2.624,0,0,1-.266-.08.39.39,0,0,1-.1-.037c.062.027.068.029.019.008l-.064-.029a3.976,3.976,0,0,1-.466-.27c-.078-.052-.153-.107-.231-.161l.017.014-.056-.045a.909.909,0,0,1-.083-.068.487.487,0,0,0-.472-.124.481.481,0,0,0-.34.34,1.791,1.791,0,0,1-.039.2c-.008.027-.035.177-.062.186.008-.019.016-.039.023-.056-.01.019-.017.039-.027.058s-.029.056-.045.083-.07.147-.1.159l.037-.049-.041.049c-.021.023-.043.047-.066.07s-.109.078-.132.118c.017-.014.035-.027.05-.041l-.049.035c-.016.012-.033.021-.049.033a2.053,2.053,0,0,1-.182.1c-.1.047.107-.035.006,0l-.085.029c-.058.017-.118.029-.177.043s-.021-.021.037,0a.525.525,0,0,0-.093.008c-.037,0-.074,0-.109,0h-.382a4.364,4.364,0,0,0-2.384.676,4.412,4.412,0,0,0-1.695,2.081,4.133,4.133,0,0,0-.28,1.335c-.01.182,0,.367,0,.549v1.551a.493.493,0,0,0,.485.485H99.793c.2,0,.408,0,.611,0h.027a.493.493,0,0,0,.485-.485V539.76a.486.486,0,0,0-.972,0Z" transform="translate(-84.311 -525.202)"/><path d="M363.588,605.165l-1.037.536-2.23,1.155q-1.066.553-2.133,1.1l-.629.326-.132.068a1.2,1.2,0,0,0-.563.664,1.48,1.48,0,0,0-.064.522v1.749a.485.485,0,1,0,.971,0c0-.625,0-1.25,0-1.873V609.4a.533.533,0,0,1,0-.056c.006.01-.027.122-.006.045.006-.017.008-.037.014-.054s.033-.1,0-.019.037-.045.043-.064c0,.012-.08.087-.025.033l.039-.041c.014-.014.029-.023.043-.037-.074.078-.062.045-.029.027l.05-.029.085-.045.543-.281,2.036-1.054,2.265-1.172c.408-.212.823-.411,1.225-.633l.017-.01a.486.486,0,0,0-.489-.841Z" transform="translate(-351.511 -594.826)"/><path d="M308.931,607.1l-1.114-.741-1.78-1.186-.412-.274a.487.487,0,0,0-.664.175.5.5,0,0,0,.175.664l1.114.741,1.78,1.186.412.274a.487.487,0,0,0,.664-.175.5.5,0,0,0-.175-.664Z" transform="translate(-300.617 -594.559)"/><path d="M558.125,189.678q-1.267-.524-2.531-1.05c-.132-.054-.264-.109-.4-.165v.936l2.232-.6.406-.109-.547-.223c.033.074-.052-.13-.031-.074.014.037.029.074.043.111a4.077,4.077,0,0,1,.118.4c.021.091.041.182.058.276.008.047.012.1.023.14-.035-.134-.006-.05,0-.012s.008.06.01.091a4.337,4.337,0,0,1,.006.745.487.487,0,0,0,.485.485.5.5,0,0,0,.485-.485,4.483,4.483,0,0,0-.355-2.166.488.488,0,0,0-.547-.223l-2.267.608-.371.1a.494.494,0,0,0-.357.468.567.567,0,0,0,.066.245.519.519,0,0,0,.289.223c.835.353,1.671.7,2.506,1.046l.417.173a.487.487,0,0,0,.375-.049.485.485,0,0,0,.175-.664A.59.59,0,0,0,558.125,189.678Z" transform="translate(-545.458 -185.561)"/></g></g></svg>